<svg width="100" height="100" viewBox="0 0 100 100" fill="none" xmlns="http://www.w3.org/2000/svg">
<rect width="100" height="100" fill="#D387FF"/>
<path d="M51.8565 36.292C44.8005 29.236 33.3576 29.236 26.292 36.292C19.236 43.3479 19.236 54.7908 26.292 61.8565C26.5928 62.1574 26.9034 62.4388 27.214 62.7106L39.0548 74.5514L50.7597 62.8464C50.8083 62.8076 50.8568 62.7688 50.9053 62.7203C51.2256 62.4388 51.5459 62.1574 51.8468 61.8468C58.9027 54.7908 58.9027 43.3479 51.8468 36.2823L51.8565 36.292Z" fill="white"/>
<path d="M72.7086 62.9136C79.7646 55.8576 79.7646 44.4148 72.7086 37.3491C65.6527 30.2931 54.2098 30.2931 47.1441 37.3491C46.8432 37.65 46.5618 37.9605 46.29 38.2711L34.4492 50.1119L46.1542 61.8169C46.193 61.8654 46.2318 61.9139 46.2803 61.9625C46.5618 62.2827 46.8432 62.603 47.1538 62.9039C54.2098 69.9599 65.6527 69.9599 72.7183 62.9039L72.7086 62.9136Z" fill="white"/>
</svg>
