<svg width="128" height="29" viewBox="0 0 128 29" fill="none" xmlns="http://www.w3.org/2000/svg">
<path d="M19.9751 3.42578C15.4074 -1.14193 7.99977 -1.14193 3.42578 3.42578C-1.14193 7.99349 -1.14193 15.4011 3.42578 19.9751C3.62055 20.1699 3.82161 20.3521 4.02266 20.528L11.6879 28.1932L19.2651 20.6159C19.2965 20.5908 19.3279 20.5657 19.3594 20.5343C19.5667 20.3521 19.774 20.1699 19.9688 19.9688C24.5365 15.4011 24.5365 7.99349 19.9688 3.4195L19.9751 3.42578Z" fill="#CE7AFF"/>
<path d="M33.4764 20.6597C38.0441 16.0919 38.0441 8.68434 33.4764 4.11035C28.9087 -0.457357 21.5011 -0.457357 16.9271 4.11035C16.7323 4.30512 16.5501 4.50618 16.3742 4.70723L8.70898 12.3724L16.2862 19.9497C16.3114 19.9811 16.3365 20.0125 16.3679 20.0439C16.5501 20.2513 16.7323 20.4586 16.9334 20.6534C21.5011 25.2211 28.9087 25.2211 33.4827 20.6534L33.4764 20.6597Z" fill="#CE7AFF"/>
<path d="M52.4704 8.73006L49.4232 8.22742L49.1279 6.908L50.24 5.89016L52.8223 6.05352L53.5323 7.66195L55.97 7.80646L55.8821 5.62628L54.6192 4.09323L50.9688 3L47.2933 3.75395L45.5341 6.85773L45.8859 8.41591L46.665 10.0306L48.6253 11.4883L51.239 11.482L52.728 12.4244L52.9919 13.8695L51.8107 14.6989L50.5981 14.9188L48.7698 14.146L48.1415 12.7888L46.5582 12.6255L45 12.8265L45.999 15.1387L47.9341 16.9796L50.9877 17.5702L54.8077 16.5021L56.5858 13.4988L55.97 11.2747L54.3113 9.35207L52.4704 8.73006Z" fill="#CE7AFF"/>
<path d="M68.6942 3.96144L65.0878 3.15723L61.5379 4.05569L58.8928 6.56259L57.9629 10.1062L59.1881 13.4738L61.4185 16.3766L65.0878 16.9734L68.7444 16.3514L71.4084 13.7189L72.1184 10.1062L71.2136 6.60657L68.6942 3.95516V3.96144ZM67.9465 13.0089L65.0878 14.4037L62.0657 13.166L61.0667 10.1125L62.1411 7.13434L65.0815 5.88403L68.0408 7.11549L69.178 10.1125L67.9402 13.0089H67.9465Z" fill="#CE7AFF"/>
<path d="M85.8071 6.83866L85.826 3.69718L83.0238 3.54639L82.9233 6.16638L82.9044 8.60417L80.1462 8.78638L77.1681 8.85549L77.4571 6.16638L77.3566 3.45215L74.4099 3.64064L74.1334 6.84494L74.347 10.1246L74.0957 13.3981L74.2465 16.7406L77.1492 16.5521L77.4005 14.0138L77.1555 11.2493L80.1462 11.4001L83.0678 11.3184L82.9861 14.0138L83.1117 16.5961L86.0522 16.7469L86.2595 13.3918L85.6878 10.1184L85.8071 6.83866Z" fill="#CE7AFF"/>
<path d="M110.682 3.51511L110.676 7.03357L110.651 10.508L110.198 13.0024L107.805 13.7249L105.593 12.8579L104.82 10.508L105.071 7.03357L104.889 3.54653L101.867 3.37061L102.376 7.021L102.005 10.508L102.565 13.5678L104.883 15.5847L107.805 16.6214L110.67 15.4716L113.101 13.5993L113.409 10.508L113.811 7.03357L113.478 3.58423L110.682 3.51511Z" fill="#CE7AFF"/>
<path d="M127.22 12.8767L127.591 9.38968L127.032 6.32988L124.713 4.31305L121.792 3.27637L118.927 4.42615L116.495 6.30475L116.181 9.38968L115.785 12.8642L116.118 16.3135L118.914 16.3826L118.92 12.8642L118.945 9.38968L119.398 6.89535L121.792 6.17281L123.997 7.03986L124.776 9.38968L124.525 12.8642L124.707 16.3512L127.729 16.5271L127.22 12.8767Z" fill="#CE7AFF"/>
<path d="M99.8888 6.88291L99.5747 3.5718L99.5684 3.50268L96.7348 3.43357L96.7285 6.8892L96.7034 10.2254L96.2824 12.5816L94.0457 13.2601L91.9723 12.4433L91.2372 10.2317L91.4822 6.8892L91.3 3.47127L88.2402 3.28906L88.7429 6.87663L88.3847 10.238L88.9314 13.2224L91.1807 15.1764L94.0143 16.188L94.0457 16.2005L96.8228 15.0822L96.8542 15.057L96.7976 16.188L96.8542 18.0666L96.4583 20.2468L94.1588 20.9442L92.0289 20.1023L91.344 18.0289H88.6046L89.1136 20.7934L91.344 22.7285L94.1588 23.7275L96.9107 22.6217L99.2543 20.8185L99.4679 18.6635H99.5119L99.6438 16.1754L99.4176 13.8193V11.4569L99.4051 11.2307L99.5056 10.2443L99.8888 6.88291Z" fill="#CE7AFF"/>
</svg>
