<svg width="22" height="18" viewBox="0 0 22 18" fill="none" xmlns="http://www.w3.org/2000/svg">
<path d="M9.46825 16.3333C9.46825 16.663 9.36755 16.9852 9.17888 17.2593C8.99022 17.5334 8.72206 17.747 8.40832 17.8731C8.09458 17.9993 7.74935 18.0323 7.41629 17.968C7.08323 17.9037 6.77729 17.7449 6.53716 17.5118C6.29704 17.2788 6.13351 16.9818 6.06726 16.6585C6.00101 16.3352 6.03501 16.0001 6.16497 15.6955C6.29492 15.391 6.51499 15.1307 6.79735 14.9475C7.07971 14.7644 7.41167 14.6667 7.75126 14.6667C8.20663 14.6667 8.64335 14.8423 8.96535 15.1548C9.28735 15.4674 9.46825 15.8913 9.46825 16.3333ZM16.6796 14.6667C16.34 14.6667 16.008 14.7644 15.7257 14.9475C15.4433 15.1307 15.2233 15.391 15.0933 15.6955C14.9634 16.0001 14.9294 16.3352 14.9956 16.6585C15.0619 16.9818 15.2254 17.2788 15.4655 17.5118C15.7056 17.7449 16.0116 17.9037 16.3446 17.968C16.6777 18.0323 17.0229 17.9993 17.3367 17.8731C17.6504 17.747 17.9186 17.5334 18.1072 17.2593C18.2959 16.9852 18.3966 16.663 18.3966 16.3333C18.3966 15.8913 18.2157 15.4674 17.8937 15.1548C17.5717 14.8423 17.135 14.6667 16.6796 14.6667ZM21.0983 4.6275L18.7554 12.0192C18.6059 12.4972 18.3015 12.9156 17.8875 13.2124C17.4735 13.5092 16.9719 13.6685 16.4572 13.6667H8.0028C7.48075 13.665 6.97331 13.4992 6.55651 13.1941C6.13971 12.889 5.83599 12.4609 5.69087 11.9742L2.75568 2H1.91349C1.64027 2 1.37824 1.89464 1.18504 1.70711C0.991839 1.51957 0.883301 1.26522 0.883301 1C0.883301 0.734783 0.991839 0.48043 1.18504 0.292893C1.37824 0.105357 1.64027 0 1.91349 0H3.01408C3.38697 0.0011182 3.74942 0.119568 4.04708 0.337582C4.34473 0.555595 4.56154 0.861416 4.66497 1.20917L5.29081 3.33333H20.1136C20.2748 3.33332 20.4338 3.37004 20.5777 3.44054C20.7217 3.51104 20.8466 3.61335 20.9423 3.73923C21.0381 3.86512 21.1021 4.01108 21.1292 4.16535C21.1563 4.31963 21.1457 4.47792 21.0983 4.6275ZM18.7185 5.33333H5.87888L7.67228 11.425C7.69281 11.4947 7.73618 11.556 7.79583 11.5996C7.85547 11.6432 7.92813 11.6667 8.0028 11.6667H16.4572C16.5307 11.6668 16.6024 11.6441 16.6615 11.6018C16.7207 11.5595 16.7644 11.4998 16.7861 11.4317L18.7185 5.33333Z" fill="black"/>
</svg>
