<svg width="19" height="18" viewBox="0 0 19 18" fill="none" xmlns="http://www.w3.org/2000/svg">
<path d="M18.0682 16.4159C16.925 14.3372 15.14 12.7175 13.0003 11.8176C14.0644 10.9908 14.8503 9.83817 15.2469 8.5229C15.6434 7.20763 15.6305 5.79643 15.2099 4.48919C14.7893 3.18195 13.9824 2.04496 12.9035 1.23926C11.8245 0.433557 10.5282 0 9.19819 0C7.86818 0 6.57188 0.433557 5.49292 1.23926C4.41396 2.04496 3.60704 3.18195 3.18645 4.48919C2.76586 5.79643 2.75294 7.20763 3.1495 8.5229C3.54607 9.83817 4.33202 10.9908 5.39603 11.8176C3.25642 12.7175 1.47134 14.3372 0.328156 16.4159C0.25732 16.5339 0.210109 16.6655 0.189328 16.8028C0.168547 16.9401 0.174621 17.0803 0.207189 17.2151C0.239757 17.3499 0.298154 17.4765 0.378908 17.5875C0.459663 17.6984 0.561126 17.7914 0.677266 17.861C0.793406 17.9305 0.921852 17.9751 1.05497 17.9922C1.18808 18.0092 1.32315 17.9984 1.45214 17.9603C1.58113 17.9222 1.70141 17.8576 1.80583 17.7704C1.91025 17.6831 1.99668 17.5751 2.05997 17.4525C3.57083 14.7469 6.23901 13.1332 9.19819 13.1332C12.1574 13.1332 14.8255 14.7478 16.3364 17.4525C16.4736 17.6811 16.6911 17.8454 16.9431 17.9107C17.1951 17.976 17.4617 17.9373 17.6866 17.8027C17.9115 17.6681 18.0771 17.4481 18.1483 17.1893C18.2195 16.9305 18.1908 16.6532 18.0682 16.4159ZM4.86239 6.56792C4.86239 5.67947 5.11668 4.81098 5.59311 4.07226C6.06953 3.33355 6.74669 2.75779 7.53895 2.41779C8.33121 2.0778 9.203 1.98884 10.0441 2.16217C10.8851 2.33549 11.6577 2.76332 12.2641 3.39155C12.8704 4.01978 13.2834 4.82019 13.4507 5.69156C13.618 6.56294 13.5321 7.46614 13.2039 8.28696C12.8758 9.10778 12.32 9.80934 11.607 10.3029C10.894 10.7965 10.0557 11.06 9.19819 11.06C8.04867 11.0586 6.94661 10.5849 6.13378 9.74278C5.32095 8.90065 4.86372 7.75887 4.86239 6.56792Z" fill="black"/>
</svg>
