<svg width="21" height="20" viewBox="0 0 21 20" fill="none" xmlns="http://www.w3.org/2000/svg">
<path d="M19.1651 19L13.162 13M1.15576 8C1.15576 8.91925 1.33692 9.82951 1.68888 10.6788C2.04085 11.5281 2.55673 12.2997 3.20708 12.9497C3.85743 13.5998 4.62951 14.1154 5.47923 14.4672C6.32895 14.8189 7.23968 15 8.15941 15C9.07914 15 9.98987 14.8189 10.8396 14.4672C11.6893 14.1154 12.4614 13.5998 13.1117 12.9497C13.7621 12.2997 14.278 11.5281 14.6299 10.6788C14.9819 9.82951 15.1631 8.91925 15.1631 8C15.1631 7.08075 14.9819 6.1705 14.6299 5.32122C14.278 4.47194 13.7621 3.70026 13.1117 3.05025C12.4614 2.40024 11.6893 1.88463 10.8396 1.53284C9.98987 1.18106 9.07914 1 8.15941 1C7.23968 1 6.32895 1.18106 5.47923 1.53284C4.62951 1.88463 3.85743 2.40024 3.20708 3.05025C2.55673 3.70026 2.04085 4.47194 1.68888 5.32122C1.33692 6.1705 1.15576 7.08075 1.15576 8Z" stroke="black" stroke-width="2.4" stroke-linecap="round" stroke-linejoin="round"/>
</svg>
            